<?xml version="1.0" encoding="utf-8"?>
<!-- Generated by Mocodo 4.3.2 -->
<svg width="628" height="170" viewBox="0 0 628 170" xmlns="http://www.w3.org/2000/svg">
<rect x="0" y="0" width="628" height="170" fill="#f5f5f5" stroke="none" stroke-width="0"/>

<!-- Association AS_MESSAGE -->
<g class="page_0_0952643a diagram_page" visibility="visible">
	<line x1="299" y1="85" x2="182" y2="85" stroke="#35978f" stroke-width="2"/>
	<line x1="55" y1="85" x2="182" y2="85" stroke="#35978f" stroke-width="2"/>
	<g>
		<path d="M217 60 a14 14 90 0 1 14 14 V85 h-98 V74 a14 14 90 0 1 14 -14" fill="#80cdc1" stroke="#80cdc1" stroke-width="0"/>
		<path d="M231 85 v11 a14 14 90 0 1 -14 14 H147 a14 14 90 0 1 -14 -14 V85 H98" fill="#c7eae5" stroke="#c7eae5" stroke-width="0"/>
		<rect x="133" y="60" width="98" height="50" fill="none" rx="14" stroke="#35978f" stroke-width="2"/>
		<line x1="133" y1="85" x2="231" y2="85" stroke="#35978f" stroke-width="1"/>
		<text x="140" y="77.75" fill="#000000" font-family="Verdana" font-size="12">AS_MESSAGE</text>
	</g>
	<text x="237" y="102" fill="#8c510a" font-family="Verdana" font-size="12" onmouseover="show_0952643a(evt,'contact')" onmouseout="hide_0952643a(evt)" style="cursor: pointer;">0,1</text>
	<text x="106" y="102" fill="#8c510a" font-family="Verdana" font-size="12" onmouseover="show_0952643a(evt,'message')" onmouseout="hide_0952643a(evt)" style="cursor: pointer;">0,N</text>
</g>

<!-- Association AS_AVAILABILITY -->
<g class="page_0_0952643a diagram_page" visibility="visible">
	<line x1="299" y1="85" x2="429" y2="85" stroke="#35978f" stroke-width="2"/>
	<line x1="571" y1="85" x2="429" y2="85" stroke="#35978f" stroke-width="2"/>
	<g>
		<path d="M477 60 a14 14 90 0 1 14 14 V85 h-124 V74 a14 14 90 0 1 14 -14" fill="#80cdc1" stroke="#80cdc1" stroke-width="0"/>
		<path d="M491 85 v11 a14 14 90 0 1 -14 14 H381 a14 14 90 0 1 -14 -14 V85 H124" fill="#c7eae5" stroke="#c7eae5" stroke-width="0"/>
		<rect x="367" y="60" width="124" height="50" fill="none" rx="14" stroke="#35978f" stroke-width="2"/>
		<line x1="367" y1="85" x2="491" y2="85" stroke="#35978f" stroke-width="1"/>
		<text x="374" y="77.75" fill="#000000" font-family="Verdana" font-size="12">AS_AVAILABILITY</text>
	</g>
	<text x="340" y="102" fill="#8c510a" font-family="Verdana" font-size="12" onmouseover="show_0952643a(evt,'contact')" onmouseout="hide_0952643a(evt)" style="cursor: pointer;">0,1</text>
	<text x="496" y="102" fill="#8c510a" font-family="Verdana" font-size="12" onmouseover="show_0952643a(evt,'availability')" onmouseout="hide_0952643a(evt)" style="cursor: pointer;">0,N</text>
</g>

<!-- Entity MESSAGE -->
<g class="page_0_0952643a diagram_page" visibility="visible">
	<g>
		<rect x="9" y="34" width="92" height="25" fill="#dfc27d" stroke="none" stroke-width="0" opacity="1"/>
		<rect x="9" y="59" width="92" height="77" fill="#f6e8c3" stroke="none" stroke-width="0" opacity="1"/>
		<rect x="9" y="34" width="92" height="102" fill="none" stroke="#bf812d" stroke-width="2" opacity="1"/>
		<line x1="9" y1="59" x2="101" y2="59" stroke="#bf812d" stroke-width="1"/>
	</g>
	<text x="25" y="51.75" fill="#000000" font-family="Verdana" font-size="12">MESSAGE</text>
	<text x="14" y="76.8" fill="#000000" font-family="Verdana" font-size="12">id message</text>
	<line x1="14" y1="79" x2="83" y2="79" stroke="#000000" stroke-width="1"/>
	<text x="14" y="93.8" fill="#000000" font-family="Verdana" font-size="12">topic</text>
	<text x="14" y="110.8" fill="#000000" font-family="Verdana" font-size="12">message text</text>
	<text x="14" y="127.8" fill="#000000" font-family="Verdana" font-size="12">created at</text>
</g>

<!-- Entity CONTACT -->
<g class="page_0_0952643a diagram_page" visibility="visible">
	<g>
		<rect x="263" y="9" width="72" height="25" fill="#dfc27d" stroke="none" stroke-width="0" opacity="1"/>
		<rect x="263" y="34" width="72" height="127" fill="#f6e8c3" stroke="none" stroke-width="0" opacity="1"/>
		<rect x="263" y="9" width="72" height="152" fill="none" stroke="#bf812d" stroke-width="2" opacity="1"/>
		<line x1="263" y1="34" x2="335" y2="34" stroke="#bf812d" stroke-width="1"/>
	</g>
	<text x="270" y="26.75" fill="#000000" font-family="Verdana" font-size="12">CONTACT</text>
	<text x="268" y="51.8" fill="#000000" font-family="Verdana" font-size="12">id contact</text>
	<line x1="268" y1="54" x2="328" y2="54" stroke="#000000" stroke-width="1"/>
	<text x="268" y="68.8" fill="#000000" font-family="Verdana" font-size="12">gender</text>
	<text x="268" y="85.8" fill="#000000" font-family="Verdana" font-size="12">first name</text>
	<text x="268" y="102.8" fill="#000000" font-family="Verdana" font-size="12">last name</text>
	<text x="268" y="119.8" fill="#000000" font-family="Verdana" font-size="12">email</text>
	<text x="268" y="136.8" fill="#000000" font-family="Verdana" font-size="12">phone</text>
	<text x="268" y="153.8" fill="#000000" font-family="Verdana" font-size="12">created at</text>
</g>

<!-- Entity AVAILABILITY -->
<g class="page_0_0952643a diagram_page" visibility="visible">
	<g>
		<rect x="523" y="26" width="96" height="25" fill="#dfc27d" stroke="none" stroke-width="0" opacity="1"/>
		<rect x="523" y="51" width="96" height="93" fill="#f6e8c3" stroke="none" stroke-width="0" opacity="1"/>
		<rect x="523" y="26" width="96" height="118" fill="none" stroke="#bf812d" stroke-width="2" opacity="1"/>
		<line x1="523" y1="51" x2="619" y2="51" stroke="#bf812d" stroke-width="1"/>
	</g>
	<text x="529" y="43.75" fill="#000000" font-family="Verdana" font-size="12">AVAILABILITY</text>
	<text x="528" y="68.8" fill="#000000" font-family="Verdana" font-size="12">id availability</text>
	<line x1="528" y1="71" x2="609" y2="71" stroke="#000000" stroke-width="1"/>
	<text x="528" y="85.8" fill="#000000" font-family="Verdana" font-size="12">day</text>
	<text x="528" y="102.8" fill="#000000" font-family="Verdana" font-size="12">hour</text>
	<text x="528" y="119.8" fill="#000000" font-family="Verdana" font-size="12">minute</text>
	<text x="528" y="136.8" fill="#000000" font-family="Verdana" font-size="12">created at</text>
</g>

<!-- Notes -->
<script type="text/ecmascript">
<![CDATA[
	function show_0952643a(evt, text) {
		var pos = (evt.target.getAttribute("y") < 125) ? "bottom" : "top";
		var note = document.getElementById(pos + "_note_0952643a");
		note.textContent = text;
		note.setAttributeNS(null, "visibility", "visible");
		document.getElementById(pos + "_overlay_0952643a").setAttributeNS(null, "visibility", "visible");
	}
	function hide_0952643a(evt) {
		document.getElementById("top_note_0952643a").setAttributeNS(null, "visibility", "hidden");
		document.getElementById("top_overlay_0952643a").setAttributeNS(null, "visibility", "hidden");
		document.getElementById("bottom_note_0952643a").setAttributeNS(null, "visibility", "hidden");
		document.getElementById("bottom_overlay_0952643a").setAttributeNS(null, "visibility", "hidden");
	}
]]>
</script>
<rect id="top_overlay_0952643a" x="0" y="0" width="100%" height="40" fill="#01665e" stroke-width="0" opacity="0.9" visibility="hidden"/>
<text id="top_note_0952643a" text-anchor="middle" x="314" y="24" fill="#f5f5f5" font-family="Verdana" font-size="14" visibility="hidden"></text>
<rect id="bottom_overlay_0952643a" x="0" y="130" width="100%" height="40" fill="#01665e" stroke-width="0" opacity="0.9" visibility="hidden"/>
<text id="bottom_note_0952643a" text-anchor="middle" x="314" y="154" fill="#f5f5f5" font-family="Verdana" font-size="14" visibility="hidden"></text>
</svg>